<svg version="1.1" id="Layer_1" xmlns="http://www.w3.org/2000/svg" xmlns:xlink="http://www.w3.org/1999/xlink" x="0px" y="0px"
	 width="100%" viewBox="0 0 320 74" enable-background="new 0 0 320 74" xml:space="preserve">
<path fill="#C39371" opacity="1.000000" stroke="none" 
	d="
M220.000000,75.000000 
	C146.666687,75.000000 73.833374,75.000000 1.000049,75.000000 
	C1.000033,50.333363 1.000033,25.666725 1.000016,1.000065 
	C107.666603,1.000044 214.333206,1.000044 320.999878,1.000022 
	C320.999908,25.666597 320.999908,50.333195 320.999939,74.999893 
	C287.500000,75.000000 254.000000,75.000000 220.000000,75.000000 
M296.581635,72.042656 
	C298.803711,71.649902 301.067291,71.412987 303.239868,70.834419 
	C309.149628,69.260620 314.389130,60.251907 313.466431,53.700836 
	C313.598358,43.235970 301.877472,35.959244 289.047058,40.070438 
	C286.074921,39.585537 283.040649,39.317089 280.166290,38.491673 
	C279.231720,38.223289 278.715057,36.499405 278.007233,35.441246 
	C279.255066,34.888729 280.718475,33.630459 281.705444,33.931919 
	C283.705597,34.542835 285.447662,35.998512 287.519623,37.239811 
	C287.967773,35.502197 288.365936,33.958313 288.764465,32.413170 
	C285.367584,32.097649 282.204468,31.411558 279.119934,31.668577 
	C277.348938,31.816145 275.705353,33.493259 274.004425,34.481823 
	C275.070679,36.254417 275.781738,38.465103 277.292236,39.689762 
	C279.220581,41.253201 281.794403,42.020470 284.048645,43.110889 
	C280.869659,50.444283 278.028992,45.458447 275.110565,43.118404 
	C274.758759,45.316639 274.484985,47.027256 274.382233,47.669174 
	C277.033600,48.985931 279.060699,49.992668 281.006165,51.646858 
	C279.877594,63.587376 285.131134,70.731155 296.581635,72.042656 
M16.019590,5.901329 
	C14.056033,7.504476 12.092476,9.107621 9.519754,11.180422 
	C3.474696,22.801895 8.273803,34.763634 20.144421,37.121006 
	C22.958597,37.679871 25.997618,37.106529 29.017401,37.956799 
	C28.721773,42.402893 28.426147,46.848988 28.116238,51.509880 
	C30.312176,51.509880 32.913502,51.509880 35.419495,51.509880 
	C34.909771,48.371090 34.429291,45.412384 33.833725,41.744980 
	C36.752834,41.937393 40.158863,41.434589 40.576679,42.328495 
	C41.738552,44.814270 41.658855,47.880356 42.074024,50.747982 
	C44.383690,50.747982 47.226532,50.747982 50.487720,50.747982 
	C48.382629,46.818478 46.528641,43.357704 45.364262,41.184200 
	C46.973373,37.207600 49.670551,33.698170 49.414101,30.419783 
	C49.049545,25.759258 44.500717,24.281244 40.012062,23.074551 
	C39.984837,8.617982 29.099274,0.566577 16.019590,5.901329 
M171.479919,24.643730 
	C166.076996,24.643730 160.674072,24.643730 155.873901,24.643730 
	C155.873901,33.929089 155.873901,42.477184 155.873901,51.380367 
	C157.812302,51.380367 160.493271,51.380367 163.036362,51.380367 
	C162.573380,48.249283 162.150299,45.387993 161.585846,41.570568 
	C164.510300,41.938206 167.941071,41.519917 168.530380,42.621578 
	C169.733063,44.869965 169.406082,47.936611 169.738037,50.925743 
	C171.754425,50.925743 174.703217,50.925743 178.227219,50.925743 
	C176.181519,47.032879 174.338394,43.525478 172.405014,39.846363 
	C179.392914,33.691006 179.507141,29.272614 171.479919,24.643730 
M251.059143,40.756302 
	C248.029114,33.779575 244.063156,32.614902 234.431427,35.992065 
	C234.132370,35.105495 233.836594,34.228687 233.497284,33.222790 
	C231.906525,33.622875 230.351135,34.014057 229.486664,34.231480 
	C229.486664,42.358223 229.486664,50.098019 229.486664,58.159084 
	C231.235123,57.648781 232.596420,57.251480 233.502594,56.987003 
	C233.502594,53.047905 233.502594,49.617874 233.502594,45.852135 
	C242.075043,51.425499 249.235855,49.474434 251.059143,40.756302 
M215.559891,46.069439 
	C215.976395,45.213924 216.392883,44.358410 216.809387,43.502895 
	C216.550812,43.167675 216.292236,42.832455 216.033676,42.497234 
	C214.757355,43.339611 213.501617,44.215557 212.198593,45.014385 
	C211.028259,45.731873 209.759766,47.002213 208.614944,46.919289 
	C204.637589,46.631203 204.330109,43.328182 204.116714,40.320412 
	C203.887314,37.087231 204.769455,33.806385 208.416824,33.690094 
	C210.072144,33.637314 211.813797,36.291683 213.516281,37.718010 
	C213.291595,38.091179 213.066895,38.464348 212.842209,38.837521 
	C214.572769,38.673172 216.303314,38.508827 218.187408,38.329903 
	C214.405716,31.099926 209.067978,29.020748 203.716644,32.396805 
	C198.894470,35.439030 197.781891,41.709160 201.248230,46.307972 
	C204.618835,50.779778 210.027740,50.913273 215.559891,46.069439 
M182.599152,34.858261 
	C179.748291,36.503307 177.593079,39.015797 179.095703,42.143166 
	C180.233688,44.511593 182.633377,47.038406 185.032242,47.862228 
	C188.904053,49.191895 193.042725,48.629936 195.654602,44.461182 
	C191.944794,42.199471 186.701691,49.663589 183.757675,42.069721 
	C188.606445,41.844486 193.111023,41.635239 197.804688,41.417210 
	C195.409515,33.409607 191.279602,31.660858 182.599152,34.858261 
M258.169830,43.239201 
	C259.877258,42.755329 261.561890,41.992702 263.297302,41.850685 
	C266.144379,41.617680 269.024445,41.787590 272.144470,41.787590 
	C270.480469,35.402237 267.298492,32.747578 262.418182,33.154934 
	C258.223511,33.505062 254.335785,34.998795 253.183136,39.456024 
	C252.236649,43.116035 254.330444,45.889748 257.654572,47.493633 
	C261.997772,49.589237 266.728210,48.289925 269.332458,44.774426 
	C265.938568,44.528358 262.274994,44.262745 258.169830,43.239201 
M103.601456,43.993958 
	C104.362946,43.273167 105.088097,41.981174 105.892204,41.930004 
	C109.461151,41.702885 113.052734,41.831585 116.727859,41.831585 
	C115.911514,35.951817 113.031258,33.255047 108.247612,33.111095 
	C103.636543,32.972343 98.593338,36.051945 98.073853,39.569736 
	C97.515373,43.351582 99.402588,46.003334 102.709221,47.568542 
	C107.064453,49.630108 111.891228,48.225945 114.315285,44.619690 
	C111.080605,44.619690 107.653831,44.619690 103.601456,43.993958 
M83.512451,36.619263 
	C84.581238,35.484074 85.650024,34.348885 87.278038,32.619736 
	C82.901634,32.123798 79.894402,31.323717 76.998291,31.617846 
	C75.097862,31.810852 73.358017,33.584949 71.546249,34.650959 
	C72.681206,36.392563 73.572617,38.386276 75.029999,39.794102 
	C76.147934,40.874016 78.229134,40.930630 79.416809,41.972542 
	C80.405525,42.839909 80.717812,44.478333 81.329712,45.775234 
	C79.903351,46.118881 78.314011,47.021572 77.091721,46.665230 
	C75.549873,46.215733 74.307526,44.738930 72.605324,43.456127 
	C72.273918,45.488243 72.012657,47.090218 71.791489,48.446411 
	C74.977669,49.049801 78.005478,50.212227 80.918564,49.973675 
	C82.957268,49.806725 85.929245,48.068775 86.456566,46.393982 
	C86.902390,44.978043 84.765053,42.278286 83.156082,40.829601 
	C81.783951,39.594162 79.439461,39.508881 77.715042,38.567066 
	C76.744850,38.037189 76.159294,36.803078 75.400459,35.886230 
	C76.551476,35.180359 77.753777,33.837536 78.840904,33.925072 
	C80.296722,34.042294 81.663345,35.267254 83.512451,36.619263 
M136.503586,45.497993 
	C132.697556,50.017475 130.781570,44.934856 127.609581,43.600914 
	C127.329918,45.436386 127.075020,47.109306 126.893227,48.302429 
	C130.028290,48.995914 132.753326,50.247570 135.312210,49.969604 
	C137.560104,49.725426 140.580292,48.273777 141.543671,46.449417 
	C143.029419,43.635826 140.651657,41.589191 137.879181,40.534538 
	C136.016495,39.825974 134.064560,39.291351 132.316528,38.368378 
	C131.477829,37.925541 131.019012,36.763226 130.388153,35.926746 
	C131.368454,35.192028 132.591248,33.658123 133.284744,33.868553 
	C135.605103,34.572643 137.736221,35.900421 140.113144,37.075005 
	C140.431793,35.860241 140.865921,34.205154 141.315582,32.490902 
	C137.940811,32.106209 135.089462,31.342056 132.341858,31.616508 
	C130.386475,31.811829 127.732391,32.938026 126.874199,34.476585 
	C125.282310,37.330498 127.845467,38.718044 130.182037,40.024052 
	C132.485779,41.311703 134.516327,43.088104 136.503586,45.497993 
M66.795502,37.822403 
	C65.648849,37.162403 64.559326,36.361877 63.345062,35.868176 
	C59.349129,34.243511 54.008659,35.829025 52.303642,39.045609 
	C50.459099,42.525417 51.818218,47.539742 55.315517,50.157581 
	C58.540737,52.571762 64.099068,52.540134 66.832207,49.640610 
	C70.082558,46.192387 70.196342,42.264133 66.795502,37.822403 
M224.300079,48.932083 
	C224.814423,48.657780 225.789551,48.354805 225.774536,48.113434 
	C225.516266,43.962265 225.135864,39.818695 224.759537,35.407288 
	C223.544693,35.407288 222.004532,35.407288 220.746490,35.407288 
	C220.746490,40.028656 220.746490,44.346451 220.746490,48.994232 
	C221.558380,48.994232 222.507309,48.994232 224.300079,48.932083 
M90.540276,44.943096 
	C90.323845,46.173809 90.107407,47.404522 89.818497,49.047340 
	C91.975342,48.919098 93.649063,48.819580 94.671768,48.758770 
	C94.671768,44.120304 94.671768,39.947361 94.671768,35.433258 
	C93.065941,35.332382 91.493263,35.233589 90.738304,35.186165 
	C90.738304,38.366474 90.738304,41.234356 90.540276,44.943096 
z"/>
<path fill="#0D0A08" opacity="1.000000" stroke="none" 
	d="
M40.070744,23.941292 
	C44.500717,24.281244 49.049545,25.759258 49.414101,30.419783 
	C49.670551,33.698170 46.973373,37.207600 45.364262,41.184200 
	C46.528641,43.357704 48.382629,46.818478 50.487720,50.747982 
	C47.226532,50.747982 44.383690,50.747982 42.074024,50.747982 
	C41.658855,47.880356 41.738552,44.814270 40.576679,42.328495 
	C40.158863,41.434589 36.752834,41.937393 33.833725,41.744980 
	C34.429291,45.412384 34.909771,48.371090 35.419495,51.509880 
	C32.913502,51.509880 30.312176,51.509880 28.116238,51.509880 
	C28.426147,46.848988 28.721773,42.402893 28.993435,37.103401 
	C28.911877,35.446770 28.854284,34.643536 28.854759,33.434555 
	C28.319803,30.262638 27.726782,27.496466 27.001411,24.112959 
	C26.818182,24.261919 27.513046,23.697018 28.398727,23.219135 
	C28.750017,23.535320 28.907867,23.766279 29.090591,24.374454 
	C29.821262,24.949305 30.524441,25.148729 31.627611,25.468592 
	C32.408764,24.723782 32.789925,23.858532 33.259735,22.838692 
	C33.348385,22.684099 33.603447,22.436466 33.603447,22.436466 
	C33.603447,22.436466 33.958672,22.448906 34.239082,22.658222 
	C36.369911,23.225456 38.220325,23.583374 40.070744,23.941292 
M39.446453,27.946972 
	C35.266068,30.121769 33.238953,33.284405 34.741886,39.171906 
	C37.075451,38.199608 40.330345,37.741924 40.643867,36.525879 
	C41.297859,33.989304 40.397469,31.051970 39.446453,27.946972 
z"/>
<path fill="#0C0907" opacity="1.000000" stroke="none" 
	d="
M171.846466,24.798134 
	C179.507141,29.272614 179.392914,33.691006 172.405014,39.846363 
	C174.338394,43.525478 176.181519,47.032879 178.227219,50.925743 
	C174.703217,50.925743 171.754425,50.925743 169.738037,50.925743 
	C169.406082,47.936611 169.733063,44.869965 168.530380,42.621578 
	C167.941071,41.519917 164.510300,41.938206 161.585846,41.570568 
	C162.150299,45.387993 162.573380,48.249283 163.036362,51.380367 
	C160.493271,51.380367 157.812302,51.380367 155.873901,51.380367 
	C155.873901,42.477184 155.873901,33.929089 155.873901,24.643730 
	C160.674072,24.643730 166.076996,24.643730 171.846466,24.798134 
M168.823441,36.085594 
	C168.961105,34.609093 169.600891,32.931984 169.111145,31.706139 
	C168.478851,30.123514 166.943451,28.901701 165.796951,27.524508 
	C164.528000,28.794538 162.610672,29.866699 162.147995,31.382788 
	C161.515671,33.454716 161.990112,35.864403 161.990112,39.172398 
	C164.654953,38.223164 166.537582,37.552559 168.823441,36.085594 
z"/>
<path fill="#100C09" opacity="1.000000" stroke="none" 
	d="
M251.074051,41.152229 
	C249.235855,49.474434 242.075043,51.425499 233.502594,45.852135 
	C233.502594,49.617874 233.502594,53.047905 233.502594,56.987003 
	C232.596420,57.251480 231.235123,57.648781 229.486664,58.159084 
	C229.486664,50.098019 229.486664,42.358223 229.486664,34.231480 
	C230.351135,34.014057 231.906525,33.622875 233.497284,33.222790 
	C233.836594,34.228687 234.132370,35.105495 234.431427,35.992065 
	C244.063156,32.614902 248.029114,33.779575 251.074051,41.152229 
M244.803299,37.671356 
	C242.890106,34.646828 240.347061,35.300068 238.739548,37.447266 
	C237.377045,39.267216 237.141754,41.931049 236.407654,44.221447 
	C238.669006,44.874489 240.930359,45.527534 243.191711,46.180580 
	C243.833725,43.587742 244.475754,40.994907 244.803299,37.671356 
z"/>
<path fill="#130F0B" opacity="1.000000" stroke="none" 
	d="
M215.329956,46.359627 
	C210.027740,50.913273 204.618835,50.779778 201.248230,46.307972 
	C197.781891,41.709160 198.894470,35.439030 203.716644,32.396805 
	C209.067978,29.020748 214.405716,31.099926 218.187408,38.329903 
	C216.303314,38.508827 214.572769,38.673172 212.842209,38.837521 
	C213.066895,38.464348 213.291595,38.091179 213.516281,37.718010 
	C211.813797,36.291683 210.072144,33.637314 208.416824,33.690094 
	C204.769455,33.806385 203.887314,37.087231 204.116714,40.320412 
	C204.330109,43.328182 204.637589,46.631203 208.614944,46.919289 
	C209.759766,47.002213 211.028259,45.731873 212.198593,45.014385 
	C213.501617,44.215557 214.757355,43.339611 216.033676,42.497234 
	C216.292236,42.832455 216.550812,43.167675 216.809387,43.502895 
	C216.392883,44.358410 215.976395,45.213924 215.329956,46.359627 
z"/>
<path fill="#140F0C" opacity="1.000000" stroke="none" 
	d="
M182.928833,34.677540 
	C191.279602,31.660858 195.409515,33.409607 197.804688,41.417210 
	C193.111023,41.635239 188.606445,41.844486 183.757675,42.069721 
	C186.701691,49.663589 191.944794,42.199471 195.654602,44.461182 
	C193.042725,48.629936 188.904053,49.191895 185.032242,47.862228 
	C182.633377,47.038406 180.233688,44.511593 179.095703,42.143166 
	C177.593079,39.015797 179.748291,36.503307 182.928833,34.677540 
M192.406693,37.275620 
	C188.724731,33.977188 186.883453,34.324612 184.845367,39.626030 
	C187.789948,39.021416 190.240631,38.518208 192.406693,37.275620 
z"/>
<path fill="#16100D" opacity="1.000000" stroke="none" 
	d="
M258.390625,43.618164 
	C262.274994,44.262745 265.938568,44.528358 269.332458,44.774426 
	C266.728210,48.289925 261.997772,49.589237 257.654572,47.493633 
	C254.330444,45.889748 252.236649,43.116035 253.183136,39.456024 
	C254.335785,34.998795 258.223511,33.505062 262.418182,33.154934 
	C267.298492,32.747578 270.480469,35.402237 272.144470,41.787590 
	C269.024445,41.787590 266.144379,41.617680 263.297302,41.850685 
	C261.561890,41.992702 259.877258,42.755329 258.390625,43.618164 
M260.166443,39.049610 
	C262.357422,39.049610 264.548401,39.049610 266.739410,39.049610 
	C266.933868,38.542774 267.128357,38.035934 267.322845,37.529099 
	C265.893097,36.728214 264.303528,35.105404 263.075928,35.344124 
	C261.686096,35.614388 260.620941,37.554287 260.166443,39.049610 
z"/>
<path fill="#15100C" opacity="1.000000" stroke="none" 
	d="
M103.914261,44.306824 
	C107.653831,44.619690 111.080605,44.619690 114.315285,44.619690 
	C111.891228,48.225945 107.064453,49.630108 102.709221,47.568542 
	C99.402588,46.003334 97.515373,43.351582 98.073853,39.569736 
	C98.593338,36.051945 103.636543,32.972343 108.247612,33.111095 
	C113.031258,33.255047 115.911514,35.951817 116.727859,41.831585 
	C113.052734,41.831585 109.461151,41.702885 105.892204,41.930004 
	C105.088097,41.981174 104.362946,43.273167 103.914261,44.306824 
M107.732758,35.137165 
	C106.448425,36.063534 105.164085,36.989902 103.879753,37.916275 
	C104.048157,38.237328 104.216553,38.558384 104.384956,38.879440 
	C106.833786,38.879440 109.282608,38.879440 111.731438,38.879440 
	C111.913925,38.512329 112.096413,38.145222 112.278900,37.778111 
	C111.020638,36.886002 109.762375,35.993889 107.732758,35.137165 
z"/>
<path fill="#140F0C" opacity="1.000000" stroke="none" 
	d="
M83.290359,36.317917 
	C81.663345,35.267254 80.296722,34.042294 78.840904,33.925072 
	C77.753777,33.837536 76.551476,35.180359 75.400459,35.886230 
	C76.159294,36.803078 76.744850,38.037189 77.715042,38.567066 
	C79.439461,39.508881 81.783951,39.594162 83.156082,40.829601 
	C84.765053,42.278286 86.902390,44.978043 86.456566,46.393982 
	C85.929245,48.068775 82.957268,49.806725 80.918564,49.973675 
	C78.005478,50.212227 74.977669,49.049801 71.791489,48.446411 
	C72.012657,47.090218 72.273918,45.488243 72.605324,43.456127 
	C74.307526,44.738930 75.549873,46.215733 77.091721,46.665230 
	C78.314011,47.021572 79.903351,46.118881 81.329712,45.775234 
	C80.717812,44.478333 80.405525,42.839909 79.416809,41.972542 
	C78.229134,40.930630 76.147934,40.874016 75.029999,39.794102 
	C73.572617,38.386276 72.681206,36.392563 71.546249,34.650959 
	C73.358017,33.584949 75.097862,31.810852 76.998291,31.617846 
	C79.894402,31.323717 82.901634,32.123798 87.278038,32.619736 
	C85.650024,34.348885 84.581238,35.484074 83.290359,36.317917 
z"/>
<path fill="#130F0B" opacity="1.000000" stroke="none" 
	d="
M136.585159,45.074032 
	C134.516327,43.088104 132.485779,41.311703 130.182037,40.024052 
	C127.845467,38.718044 125.282310,37.330498 126.874199,34.476585 
	C127.732391,32.938026 130.386475,31.811829 132.341858,31.616508 
	C135.089462,31.342056 137.940811,32.106209 141.315582,32.490902 
	C140.865921,34.205154 140.431793,35.860241 140.113144,37.075005 
	C137.736221,35.900421 135.605103,34.572643 133.284744,33.868553 
	C132.591248,33.658123 131.368454,35.192028 130.388153,35.926746 
	C131.019012,36.763226 131.477829,37.925541 132.316528,38.368378 
	C134.064560,39.291351 136.016495,39.825974 137.879181,40.534538 
	C140.651657,41.589191 143.029419,43.635826 141.543671,46.449417 
	C140.580292,48.273777 137.560104,49.725426 135.312210,49.969604 
	C132.753326,50.247570 130.028290,48.995914 126.893227,48.302429 
	C127.075020,47.109306 127.329918,45.436386 127.609581,43.600914 
	C130.781570,44.934856 132.697556,50.017475 136.585159,45.074032 
z"/>
<path fill="#0C0907" opacity="1.000000" stroke="none" 
	d="
M67.085510,38.089867 
	C70.196342,42.264133 70.082558,46.192387 66.832207,49.640610 
	C64.099068,52.540134 58.540737,52.571762 55.315517,50.157581 
	C51.818218,47.539742 50.459099,42.525417 52.303642,39.045609 
	C54.008659,35.829025 59.349129,34.243511 63.345062,35.868176 
	C64.559326,36.361877 65.648849,37.162403 67.085510,38.089867 
M62.924164,47.327282 
	C63.237938,45.234188 64.045525,43.054882 63.700188,41.076862 
	C63.450039,39.644073 61.671139,38.478180 60.573959,37.193268 
	C59.407543,38.226898 57.402946,39.147598 57.245373,40.317150 
	C56.893600,42.928146 57.463387,45.663296 57.657730,48.347866 
	C59.252151,48.228546 60.846577,48.109230 62.924164,47.327282 
z"/>
<path fill="#120D0A" opacity="1.000000" stroke="none" 
	d="
M281.087799,50.999405 
	C279.060699,49.992668 277.033600,48.985931 274.382233,47.669174 
	C274.484985,47.027256 274.758759,45.316639 275.110565,43.118404 
	C278.028992,45.458447 280.869659,50.444283 284.048645,43.110889 
	C281.794403,42.020470 279.220581,41.253201 277.292236,39.689762 
	C275.781738,38.465103 275.070679,36.254417 274.004425,34.481819 
	C275.705353,33.493259 277.348938,31.816145 279.119934,31.668577 
	C282.204468,31.411558 285.367584,32.097649 288.764465,32.413170 
	C288.365936,33.958313 287.967773,35.502197 287.519623,37.239811 
	C285.447662,35.998512 283.705597,34.542835 281.705444,33.931919 
	C280.718475,33.630459 279.255066,34.888729 278.007233,35.441246 
	C278.715057,36.499405 279.231720,38.223289 280.166290,38.491673 
	C283.040649,39.317089 286.074921,39.585537 289.319153,40.475449 
	C289.428528,41.844948 289.265808,42.809429 289.083740,43.997635 
	C289.074005,44.532410 289.157410,44.822266 289.254089,45.453690 
	C287.689392,47.561123 286.185211,49.305798 284.320984,51.046703 
	C283.003235,51.028423 282.045502,51.013912 281.087799,50.999405 
z"/>
<path fill="#524C47" opacity="1.000000" stroke="none" 
	d="
M28.796692,33.840298 
	C28.854284,34.643536 28.911877,35.446770 28.951340,36.652000 
	C25.997618,37.106529 22.958597,37.679871 20.144421,37.121006 
	C8.273803,34.763634 3.474696,22.801895 10.081553,11.131525 
	C10.912134,11.647562 11.180918,12.212495 11.303556,13.123621 
	C11.124201,13.965325 11.090993,14.460838 10.762331,15.246938 
	C9.509170,20.396259 9.052465,25.173077 12.825276,29.585724 
	C13.909508,30.659239 14.881815,31.423655 16.115139,32.434616 
	C20.516335,33.067539 24.656515,33.453918 28.796692,33.840298 
z"/>
<path fill="#4D4844" opacity="1.000000" stroke="none" 
	d="
M40.041405,23.507919 
	C38.220325,23.583374 36.369911,23.225456 34.196457,22.522270 
	C33.873417,22.177004 33.962555,21.905567 34.320255,21.848701 
	C38.852219,18.549633 36.917053,15.709393 34.115189,12.917984 
	C34.135643,12.908445 34.119633,12.866243 34.047031,12.531086 
	C30.235741,8.601191 26.541597,4.810896 20.677681,9.070179 
	C19.155212,7.882789 17.931273,6.860106 16.707335,5.837423 
	C29.099274,0.566577 39.984837,8.617982 40.041405,23.507919 
z"/>
<path fill="#A0B5C5" opacity="1.000000" stroke="none" 
	d="
M289.103119,43.773914 
	C289.265808,42.809429 289.428528,41.844948 289.832031,40.396290 
	C301.877472,35.959244 313.598358,43.235970 312.994629,53.916149 
	C312.047577,54.079704 311.572327,54.027946 311.000366,53.622620 
	C309.751099,48.719761 307.743652,44.822552 302.772217,42.726570 
	C297.797150,40.499741 293.379822,41.409611 289.103119,43.773914 
z"/>
<path fill="#CDD5DA" opacity="1.000000" stroke="none" 
	d="
M311.097107,53.976189 
	C311.572327,54.027946 312.047577,54.079704 312.730133,54.244865 
	C314.389130,60.251907 309.149628,69.260620 303.239868,70.834419 
	C301.067291,71.412987 298.803711,71.649902 296.253235,71.682755 
	C295.941803,70.695435 295.958801,70.068016 296.388977,69.367142 
	C306.270142,68.236031 310.365173,63.848091 311.097107,53.976189 
z"/>
<path fill="#A4BAC9" opacity="1.000000" stroke="none" 
	d="
M295.975769,69.440605 
	C295.958801,70.068016 295.941803,70.695435 295.930847,71.636292 
	C285.131134,70.731155 279.877594,63.587376 281.046997,51.323128 
	C282.045502,51.013912 283.003235,51.028423 284.404846,51.300282 
	C284.897614,51.728832 284.946503,51.900036 284.814941,52.374535 
	C284.563263,55.448242 284.492035,58.218658 284.582703,61.312698 
	C285.151703,61.784496 285.558777,61.932671 285.925964,62.057716 
	C285.886017,62.034595 285.839020,62.114037 285.666199,62.453575 
	C287.670685,67.085457 291.603821,68.608994 295.975769,69.440605 
z"/>
<path fill="#1B1410" opacity="1.000000" stroke="none" 
	d="
M223.878159,48.963158 
	C222.507309,48.994232 221.558380,48.994232 220.746490,48.994232 
	C220.746490,44.346451 220.746490,40.028656 220.746490,35.407288 
	C222.004532,35.407288 223.544693,35.407288 224.759537,35.407288 
	C225.135864,39.818695 225.516266,43.962265 225.774536,48.113434 
	C225.789551,48.354805 224.814423,48.657780 223.878159,48.963158 
z"/>
<path fill="#8DCE5F" opacity="1.000000" stroke="none" 
	d="
M16.363462,5.869376 
	C17.931273,6.860106 19.155212,7.882789 20.796253,9.262403 
	C21.415144,9.849301 21.655159,10.027884 21.907295,10.436284 
	C21.592669,11.189138 21.304152,11.660793 20.660223,12.134939 
	C17.381542,12.744150 14.651018,16.017767 11.449702,12.777429 
	C11.180918,12.212495 10.912134,11.647562 10.386134,10.896698 
	C12.092476,9.107621 14.056033,7.504476 16.363462,5.869376 
z"/>
<path fill="#0F0B09" opacity="1.000000" stroke="none" 
	d="
M90.639290,44.522667 
	C90.738304,41.234356 90.738304,38.366474 90.738304,35.186165 
	C91.493263,35.233589 93.065941,35.332382 94.671768,35.433258 
	C94.671768,39.947361 94.671768,44.120304 94.671768,48.758770 
	C93.649063,48.819580 91.975342,48.919098 89.818497,49.047340 
	C90.107407,47.404522 90.323845,46.173809 90.639290,44.522667 
z"/>
<path fill="#DEB587" opacity="1.000000" stroke="none" 
	d="
M28.854759,33.434555 
	C24.656515,33.453918 20.516335,33.067539 16.458963,32.368744 
	C19.207979,31.632307 22.400522,32.074791 22.361984,27.782185 
	C22.337906,25.100224 22.980551,22.273624 19.227272,21.652153 
	C19.566118,21.318237 19.781462,21.153191 20.307482,20.957457 
	C21.330969,20.602514 22.059366,20.298595 23.098476,19.926340 
	C25.008762,20.949373 26.608337,22.040745 28.207911,23.132116 
	C27.513046,23.697018 26.818182,24.261919 27.001411,24.112959 
	C27.726782,27.496466 28.319803,30.262638 28.854759,33.434555 
z"/>
<path fill="#D08F5C" opacity="1.000000" stroke="none" 
	d="
M28.398727,23.219135 
	C26.608337,22.040745 25.008762,20.949373 23.019428,19.665339 
	C22.108850,18.968105 21.588036,18.463535 21.045231,17.581507 
	C20.965675,16.703691 20.908106,16.203339 20.848433,15.528805 
	C20.846327,15.354625 20.908478,15.011146 21.300179,15.007349 
	C23.404125,14.689418 25.116373,14.375284 27.228567,13.987791 
	C29.792221,13.565034 31.955927,13.215638 34.119633,12.866243 
	C34.119633,12.866243 34.135643,12.908445 34.112335,13.294951 
	C34.046871,16.422827 34.004711,19.164198 33.962555,21.905567 
	C33.962555,21.905567 33.873417,22.177004 33.916046,22.312954 
	C33.958672,22.448906 33.603447,22.436466 33.603447,22.436466 
	C33.603447,22.436466 33.348385,22.684099 32.954933,22.862041 
	C32.154175,23.028330 31.746870,23.016676 31.029078,23.066559 
	C30.166759,23.418409 29.614929,23.708719 29.063099,23.999029 
	C28.907867,23.766279 28.750017,23.535320 28.398727,23.219135 
z"/>
<path fill="#B38769" opacity="1.000000" stroke="none" 
	d="
M39.791077,28.113129 
	C40.397469,31.051970 41.297859,33.989304 40.643867,36.525879 
	C40.330345,37.741924 37.075451,38.199608 34.741886,39.171906 
	C33.238953,33.284405 35.266068,30.121769 39.791077,28.113129 
z"/>
<path fill="#B38769" opacity="1.000000" stroke="none" 
	d="
M31.339565,23.005022 
	C31.746870,23.016676 32.154175,23.028330 32.866280,23.016632 
	C32.789925,23.858532 32.408764,24.723782 31.660019,25.078344 
	C31.308144,24.046780 31.323854,23.525900 31.339565,23.005022 
z"/>
<path fill="#E6BD91" opacity="1.000000" stroke="none" 
	d="
M31.029078,23.066559 
	C31.323854,23.525900 31.308144,24.046780 31.260025,24.957905 
	C30.524441,25.148729 29.821262,24.949305 29.090591,24.374454 
	C29.614929,23.708719 30.166759,23.418409 31.029078,23.066559 
z"/>
<path fill="#BE8F6E" opacity="1.000000" stroke="none" 
	d="
M168.621826,36.483772 
	C166.537582,37.552559 164.654953,38.223164 161.990112,39.172398 
	C161.990112,35.864403 161.515671,33.454716 162.147995,31.382788 
	C162.610672,29.866699 164.528000,28.794538 165.796951,27.524509 
	C166.943451,28.901701 168.478851,30.123514 169.111145,31.706139 
	C169.600891,32.931984 168.961105,34.609093 168.621826,36.483772 
z"/>
<path fill="#BD8E6D" opacity="1.000000" stroke="none" 
	d="
M244.960541,38.036713 
	C244.475754,40.994907 243.833725,43.587742 243.191711,46.180580 
	C240.930359,45.527534 238.669006,44.874489 236.407654,44.221451 
	C237.141754,41.931049 237.377045,39.267216 238.739548,37.447266 
	C240.347061,35.300068 242.890106,34.646828 244.960541,38.036713 
z"/>
<path fill="#B98B6B" opacity="1.000000" stroke="none" 
	d="
M192.549011,37.645309 
	C190.240631,38.518208 187.789948,39.021416 184.845367,39.626030 
	C186.883453,34.324612 188.724731,33.977188 192.549011,37.645309 
z"/>
<path fill="#BD8E6D" opacity="1.000000" stroke="none" 
	d="
M259.790527,38.908905 
	C260.620941,37.554287 261.686096,35.614388 263.075928,35.344124 
	C264.303528,35.105404 265.893097,36.728214 267.322845,37.529099 
	C267.128357,38.035934 266.933868,38.542774 266.739410,39.049610 
	C264.548401,39.049610 262.357422,39.049610 259.790527,38.908905 
z"/>
<path fill="#BD8E6D" opacity="1.000000" stroke="none" 
	d="
M108.118431,35.119473 
	C109.762375,35.993889 111.020638,36.886002 112.278900,37.778111 
	C112.096413,38.145222 111.913925,38.512329 111.731438,38.879440 
	C109.282608,38.879440 106.833786,38.879440 104.384956,38.879440 
	C104.216553,38.558384 104.048157,38.237328 103.879753,37.916275 
	C105.164085,36.989902 106.448425,36.063534 108.118431,35.119473 
z"/>
<path fill="#B98B6B" opacity="1.000000" stroke="none" 
	d="
M62.682579,47.658596 
	C60.846577,48.109230 59.252151,48.228546 57.657730,48.347866 
	C57.463387,45.663296 56.893600,42.928146 57.245373,40.317150 
	C57.402946,39.147598 59.407543,38.226898 60.573959,37.193268 
	C61.671139,38.478180 63.450039,39.644073 63.700188,41.076862 
	C64.045525,43.054882 63.237938,45.234188 62.682579,47.658596 
z"/>
<path fill="#EF5038" opacity="1.000000" stroke="none" 
	d="
M284.995422,52.071239 
	C284.946503,51.900036 284.897614,51.728832 284.764893,51.304050 
	C286.185211,49.305798 287.689392,47.561123 289.686401,45.434441 
	C293.804260,45.228889 297.429321,45.405354 301.036926,46.016068 
	C300.290771,48.717297 299.562073,50.984272 298.399139,53.203575 
	C295.305023,53.140774 292.645111,53.125641 289.615601,53.088753 
	C287.829132,52.735073 286.412292,52.403156 284.995422,52.071239 
z"/>
<path fill="#F5A52F" opacity="1.000000" stroke="none" 
	d="
M301.054382,45.581818 
	C297.429321,45.405354 293.804260,45.228889 289.746887,45.071678 
	C289.157410,44.822266 289.074005,44.532410 289.083740,43.997635 
	C293.379822,41.409611 297.797150,40.499741 302.749878,43.131821 
	C302.989075,44.596645 302.972229,45.408924 302.636047,46.124146 
	C301.895935,45.878666 301.475159,45.730240 301.054382,45.581818 
z"/>
<path fill="#F5EEDE" opacity="1.000000" stroke="none" 
	d="
M19.088181,21.800686 
	C22.980551,22.273624 22.337906,25.100224 22.361984,27.782185 
	C22.400522,32.074791 19.207979,31.632307 16.197947,32.122200 
	C14.881815,31.423655 13.909508,30.659239 12.881237,29.161812 
	C12.540798,23.978025 14.686030,21.823074 19.088181,21.800686 
z"/>
<path fill="#E6BD91" opacity="1.000000" stroke="none" 
	d="
M19.227272,21.652153 
	C14.686030,21.823074 12.540798,23.978025 12.769314,28.852716 
	C9.052465,25.173077 9.509170,20.396259 11.023239,15.428703 
	C12.397388,16.260532 13.215177,17.201181 14.128084,18.220852 
	C14.223204,18.299875 14.573034,18.388893 14.573034,18.388893 
	C14.573034,18.388893 14.925119,18.293335 15.268002,18.157633 
	C17.357435,17.248949 19.103985,16.475965 20.850536,15.702984 
	C20.908106,16.203339 20.965675,16.703691 20.841873,17.842888 
	C20.444468,19.323980 20.228430,20.166231 20.012394,21.008482 
	C19.781462,21.153191 19.566118,21.318237 19.227272,21.652153 
z"/>
<path fill="#719951" opacity="1.000000" stroke="none" 
	d="
M14.032965,18.141830 
	C13.215177,17.201181 12.397388,16.260532 11.318692,15.138117 
	C11.090993,14.460838 11.124201,13.965325 11.303556,13.123621 
	C14.651018,16.017767 17.381542,12.744150 20.653152,12.493161 
	C20.970488,13.569643 20.939482,14.290395 20.908478,15.011146 
	C20.908478,15.011146 20.846327,15.354625 20.848431,15.528805 
	C19.103985,16.475965 17.357435,17.248949 15.053096,18.072195 
	C14.495308,18.122459 14.032965,18.141830 14.032965,18.141830 
z"/>
<path fill="#C67E46" opacity="1.000000" stroke="none" 
	d="
M34.047031,12.531086 
	C31.955927,13.215638 29.792221,13.565034 27.325630,13.676382 
	C27.345022,12.542912 27.667297,11.647492 28.204437,10.155084 
	C25.779020,10.155084 23.856211,10.155084 21.933403,10.155084 
	C21.655159,10.027884 21.415144,9.849301 21.094784,9.427111 
	C26.541597,4.810896 30.235741,8.601191 34.047031,12.531086 
z"/>
<path fill="#C67E46" opacity="1.000000" stroke="none" 
	d="
M34.320255,21.848701 
	C34.004711,19.164198 34.046871,16.422827 34.091881,13.304490 
	C36.917053,15.709393 38.852219,18.549633 34.320255,21.848701 
z"/>
<path fill="#F08525" opacity="1.000000" stroke="none" 
	d="
M302.955383,46.221199 
	C302.972229,45.408924 302.989075,44.596645 303.028259,43.379120 
	C307.743652,44.822552 309.751099,48.719761 311.000366,53.622620 
	C310.365173,63.848091 306.270142,68.236031 296.388977,69.367142 
	C291.603821,68.608994 287.670685,67.085457 286.048035,62.362801 
	C288.708893,60.904045 290.815125,59.875610 292.946411,59.146702 
	C292.986267,59.645939 293.000977,59.845646 293.020416,60.442337 
	C294.324158,61.885414 295.536194,63.681698 296.937744,63.844318 
	C302.257904,64.461609 305.169037,60.240746 306.024017,56.404392 
	C306.696320,53.387791 304.099854,49.642693 302.955383,46.221199 
z"/>
<path fill="#81AF3B" opacity="1.000000" stroke="none" 
	d="
M292.921326,58.847168 
	C290.815125,59.875610 288.708893,60.904045 286.220856,62.023262 
	C285.839020,62.114037 285.886017,62.034595 285.776245,61.756943 
	C285.251251,61.315887 284.836060,61.152485 284.420837,60.989075 
	C284.492035,58.218658 284.563263,55.448242 284.814941,52.374535 
	C286.412292,52.403156 287.829132,52.735073 289.837036,53.334236 
	C291.259125,55.350044 292.090240,57.098602 292.921326,58.847168 
z"/>
<path fill="#F08525" opacity="1.000000" stroke="none" 
	d="
M284.582703,61.312698 
	C284.836060,61.152485 285.251251,61.315887 285.816162,61.780067 
	C285.558777,61.932671 285.151703,61.784496 284.582703,61.312698 
z"/>
<path fill="#D1905E" opacity="1.000000" stroke="none" 
	d="
M21.907295,10.436284 
	C23.856211,10.155084 25.779020,10.155084 28.204437,10.155084 
	C27.667297,11.647492 27.345022,12.542912 26.925682,13.749743 
	C25.116373,14.375284 23.404125,14.689418 21.300179,15.007349 
	C20.939482,14.290395 20.970488,13.569643 21.008562,12.490669 
	C21.304152,11.660793 21.592669,11.189138 21.907295,10.436284 
z"/>
<path fill="#E4BD8E" opacity="1.000000" stroke="none" 
	d="
M20.307480,20.957457 
	C20.228430,20.166231 20.444468,19.323980 20.863861,18.220348 
	C21.588036,18.463535 22.108850,18.968105 22.708715,19.733677 
	C22.059366,20.298595 21.330969,20.602514 20.307480,20.957457 
z"/>
<path fill="#E3392C" opacity="1.000000" stroke="none" 
	d="
M302.636047,46.124146 
	C304.099854,49.642693 306.696320,53.387791 306.024017,56.404392 
	C305.169037,60.240746 302.257904,64.461609 296.937744,63.844318 
	C295.536194,63.681698 294.324158,61.885414 293.369385,60.401695 
	C295.912842,59.898933 298.112030,59.833794 300.311249,59.768654 
	C299.818634,57.596188 299.325989,55.423717 298.833374,53.251247 
	C299.562073,50.984272 300.290771,48.717297 301.036926,46.016068 
	C301.475159,45.730240 301.895935,45.878666 302.636047,46.124146 
z"/>
<path fill="#F5961C" opacity="1.000000" stroke="none" 
	d="
M298.399139,53.203575 
	C299.325989,55.423717 299.818634,57.596188 300.311249,59.768654 
	C298.112030,59.833794 295.912842,59.898933 293.364685,60.004711 
	C293.000977,59.845646 292.986267,59.645939 292.946442,59.146698 
	C292.090240,57.098602 291.259125,55.350044 290.206635,53.355999 
	C292.645111,53.125641 295.305023,53.140774 298.399139,53.203575 
z"/>
<path fill="#E4BD8E" opacity="1.000000" stroke="none" 
	d="
M14.128084,18.220852 
	C14.032965,18.141830 14.495308,18.122459 14.710214,18.207897 
	C14.925119,18.293335 14.573034,18.388893 14.573034,18.388893 
	C14.573034,18.388893 14.223204,18.299875 14.128084,18.220852 
z"/>
</svg>